<?xml version="1.0" encoding="UTF-8"?>
<svg id="Camada_2" data-name="Camada 2" xmlns="http://www.w3.org/2000/svg" viewBox="0 0 49.43 36.16">
  <defs>
    <style>
      .cls-1 {
        fill: none;
        stroke: #22c55e;
        stroke-miterlimit: 10;
        stroke-width: 2px;
      }

      .cls-2 {
        fill: #22c55e;
        stroke-width: 0px;
      }
    </style>
  </defs>
  <g id="Camada_1-2" data-name="Camada 1">
    <g>
      <line class="cls-1" x1="49.13" y1="13.89" x2="34.57" y2="18.48"/>
      <path class="cls-1" d="m9.47,17.84s.46,18.68,15.26,17.24,15.41-18.16,15.41-18.16"/>
      <line class="cls-1" x1=".5" y1="12.5" x2="13.1" y2="19.79"/>
      <line class="cls-1" x1="25.33" y1="35.02" x2="24.74" y2="26.84"/>
      <polygon class="cls-1" points="24.51 15.44 29.03 17.09 32.13 7.96 26.98 9.49 30.89 1.46 20.16 4.03 23.11 11.48 17.66 7.47 19.12 17.18 24.51 15.44"/>
      <line class="cls-1" x1="25.23" y1="20.78" x2="24.51" y2="15.44"/>
      <path class="cls-2" d="m25.1,20.82h0c.2,0,.41.03.61.08,1.34.34,2.15,1.7,1.81,3.03-.28,1.11-1.28,1.89-2.42,1.89-.2,0-.41-.03-.61-.08-1.34-.34-2.15-1.7-1.81-3.03.28-1.11,1.28-1.89,2.42-1.89m0-2c-2.01,0-3.85,1.36-4.36,3.4-.61,2.41.86,4.86,3.27,5.46.37.09.74.14,1.1.14,2.01,0,3.85-1.36,4.36-3.4.61-2.41-.86-4.86-3.27-5.46-.37-.09-.74-.14-1.1-.14h0Z"/>
    </g>
  </g>
</svg>