<?xml version="1.0" encoding="UTF-8"?>
<svg id="Camada_2" data-name="Camada 2" xmlns="http://www.w3.org/2000/svg" viewBox="0 0 344.03 448.75">
  <defs>
    <style>
      .cls-1 {
        fill: #22c55e;
        stroke-width: 0px;
      }
    </style>
  </defs>
  <g id="Camada_1-2" data-name="Camada 1">
    <g id="Camada_2-2" data-name="Camada 2">
      <g id="Camada_1-2" data-name="Camada 1-2">
        <path class="cls-1" d="m335.38,109.1c-.6-1.91-1.09-3.85-1.59-5.78-.39-1.5-.38-3.23-1.16-4.48-2.44-3.91-5.18-7.63-7.76-11.45-.34-.64-.63-1.31-.85-2l.55-.41,5,4.31c.18-.11.36-.22.53-.34-.67-1.64-1.35-3.28-2-4.93,1.21.62,2.22,1.56,2.91,2.73.62,1.23,1.08,2.52,1.38,3.86.18.71-.23,1.66.1,2.2.24.39,1.28.27,2.14.41,3.55,6.28,4.89,7.37,9.4,7.33l-14.42-22,4.31,1.84c-1.64-3.39-3.05-6.14-4.27-9-.27-.95-.39-1.94-.38-2.93,1.17-.12,2.64-.74,3.46-.26,1.8,1.11,4.06,1.19,5.94.21-1.06-1.29-2-2.49-3-3.61-.74-.81-1.69-1.45-2.41-2.28-1.82-2.11-3.61-4.24-5.31-6.45-.68-.71-1.09-1.65-1.15-2.63.07-.53,1.53-.85,2.53-1.35-1.74-2-3.61-4-5.39-6.12-.34-.56-.58-1.17-.73-1.8l1.93.16c.29.05.58.12.87.2-1.39-2.59-3.55-4.69-6.18-6-2.18-1.15-4.23-2.53-6.32-3.83-3.31-2.06-6.59-4.14-9.89-6.2-.4-.25-.88-.37-1.27-.63-1.88-1.25-3.65-2.67-5.61-3.77-2.74-1.55-5.61-2.88-8.47-4.32.36-1,.57-1.56.91-2.52-3.84-1.28-7.54-2.63-11.32-3.74s-7.89-1.78-11.69-3.08c-2.5-.86-4.58-3-7.58-2.1-.15.02-.31,0-.45-.07-1.14-.38-2.24-.85-3.31-1.4-.84-.51-1.39-1.68-2.25-1.94-1.76-.53-3.59-.83-5.43-.9-1.19-.05-2.35.37-1.76-1.45-.58.09-1.18.09-1.76,0-1.35-.43-2.64-1.42-4-1.45-5.81-.13-11.23,1.75-16.43,4.05-2.31.97-4.31,2.56-5.78,4.59-1.3,2-1.3,4.79-2.07,7.17-1.41,4.42-2.95,8.81-4.5,13.18-.16.46-.78,1.12-1.1,1.08-.56-.2-1.05-.56-1.4-1.05-.25-.41-.47-.83-.67-1.26-1-1.45-2-3.09-4.11-2.79-2.39.35-5.1.35-6.06,3.36-.58,1.8-1,3.67-1.77,5.39s-1.87,3.42-2.83,5.13c-1.39-.74-2.73-1.57-4-2.5-2.09-1.76-4.49-1.85-5.76.45-1.76,3.18-3.1,6.6-4.56,9.95-.82,1.87-1.19,4-2.36,5.62-1.67,2.22-2.81,4.8-3.31,7.53-.41,1.42-1.2,2.7-2.27,3.71-1.09-1.19-2.31-2.26-3.64-3.19-.46-.31-.83-.73-1.07-1.23-1.8-4.33-3.77-8.61-5.25-13.05-1.66-5-1.74-10.59-6.66-14.59-1.62,1.41-3.27,3-5,4.37-1,.75-2.25,1.82-3.24,1.69-1.71-.22-2.34-1.84-2.5-3.61-.33-3.86-.85-7.71-3.35-10.88-.84-.85-1.78-1.6-2.8-2.23-.71,1-1.49,2.06-2.09,3.17-.67,1.51-1.41,2.98-2.23,4.42-.74,1.07-2.37,1.25-2.59-.17-.27-1.81-1.63-2.12-2.56-3.1-.95-1.09-1.79-2.27-2.5-3.53-.71-1.17-1.32-2.41-2-3.65.11-1.31.08-2.62-.08-3.92-.15-.75-1.1-1.35-1.8-2.14,1.83-3.23,1.7-3.59-2.39-5.1-1.41-.53-2.84-1-4.28-1.46-1.77-.55-3.58-1-5.32-1.62-1.54-.57-3.36-1-4.44-2.12-2.87-2.92-6-3.44-9.7-2.11-1.48.54-3,.89-4.51,1.46-1.47.58-2.91,1.25-4.3,2-2.27,1.23-4.36,2.9-6.76,3.76-3.36,1.22-6.64,3.14-10.48,2.45-.32,0-.64.1-.92.25-4.73,1.66-9.5,3.22-14.18,5-2.53.96-4.95,2.17-7.24,3.6-3.74,2.38-7.25,5.13-10.95,7.57-6.49,4.27-13.05,8.45-19.65,12.63-1.71,1.09-3.5,2-5.48,3.19,5.24.49,8.33-3.77,13.22-5.14-.49.75-1.04,1.47-1.63,2.15-2.93,2.67-5.88,5.33-8.84,8-1.92,1.49-3.32,3.54-4,5.87l3.76-1.68-3,4.83.52.37,7.25-4.8c-.16,1.03-.62,2-1.32,2.78-3.65,4.39-7.56,8.6-9,14.52.32-.14.58-.28.86-.37.86-.27,1.73-.51,2.6-.77-.07,1-.1,2-.23,2.92-.12.38-.3.74-.53,1.07l-3.87,7.53.5.67,5.38-2.89c-1,1.57-1.57,2.65-2.25,3.67-1,1.53-2.11,3-3.13,4.52-1.32,2-2.36,4.2-4,5.87s-1.91,3.49-2.14,5.49l.56.61,9.47-6.84c-1.61,3.78-3.23,7.57-4.83,11.35-.19.44-.59,1.09-.43,1.32,1.63,2.31-.29,3.66-1.52,4.83-1.91,1.86-2.97,4.42-2.92,7.09-.13,2.44-.66,4.87-1,7.31-.08.56-.12,1.13-.17,1.69l.69.62c1.62-5.39,6.48-6.08,10.44-8.13-.17,1.69-.34,3.36-.51,5-.1,1,.89,1.52.36,2.89-1.27,3.32-2.08,6.85-.76,10.51.33,1.15.31,2.38-.05,3.52-1.54,5.45-3.38,10.78-7.87,14.68-.32.4-.56.86-.73,1.34l.51.47c7.46-1.86,12.71-6.25,14.9-14.15.24,4,.35,7.62.22,11.29-.16,4.24-2.37,8.26-1.3,12.67.39,1.59-.21,3.52.44,4.92,1,2.12,1.24,2.77-.46,4.48-.83.83-2,1.51-2.44,2.51-1.39,2.68-2.55,5.47-3.46,8.35-.49,1.71-.09,3.67-.09,5.94l12.85-10.6.41.35c-1.85,4.41-3.7,8.82-5.61,13.35l1.55-.32c-3.58,6.86-5,13.78-3.68,21.5.88-.53,2-.83,2.37-1.51,1.47-3,2.71-6.19,4-9.31.32-.77.33-1.83.87-2.32,1.25-.97,2.57-1.85,3.94-2.64-.19,1.38-.5,3-.63,4.65-.33,4.2-1.27,8.5-.69,12.58.75,5.29.41,10.68-1,15.83-1.31,4.91-1.9,9.81-.36,15l2.12-1.14v13.59c0,4.21.11,8.38-1.2,12.56-1,3.2-1.58,6.71.9,9.84.39.49,0,1.62-.06,2.44-.48,3.63-1.06,7.25-1.47,10.89-.09,1.74-.09,3.49,0,5.23.64-.29,1.81-.45,2.39-1.12,4.28-4.93,4.41-11,4.2-17.19l1.41.41c.32-2.26.81-4.5,1.47-6.69,1.65-4.26,4.68-8,5.07-12.74,0,0,.26-.05.53-.1l.39,2.47.6.11c1.33-5.6,2.65-11.2,4.09-17.26.44,1.42.78,2.88,1,4.35.4,6.8-1.53,13.66.47,20.44.04.56,0,1.11-.11,1.66v11c4.21-1.18,5.7-3.7,6-7.17.08-.94,0-2.21.54-2.75,1.72-1.67,1.45-3.66,1.24-5.59-.59-5.44-.16-10.67,2.63-15.49.56-.79,1.2-1.53,1.91-2.2.78.73,1.43,1.58,1.92,2.52.49,1.87.88,3.77,1.16,5.68l.39.12,1.5-5.83c.52,1.21.7,2.53.52,3.83-.27,2.36,0,4.76.79,7,1.05,4.08,1.85,8.21,2.41,12.38.37,2.23.54,4.51.81,6.76,0,.08.23.13.45.25.22-.54.43-1.06.8-2,1.1,2,1.87,3.28,1,5.37-.61,1.89-.84,3.87-.69,5.85.13,2.23.4,4.45.79,6.65.19,1.28.06,2.64,1.66,3.4.45.21.55,1.73.37,2.55-.3,1.31-1.19,2.5-1.41,3.81-.33,1.69-.37,3.42-.13,5.12.52,2.86,1.9,5.63,2,8.48.21,4.47,1.67,8.79,4.21,12.47.55-1.43,1.06-2.53,1.4-3.68.58-1.82,1.05-3.68,1.43-5.55.37-1.64.5-3.32.39-5-.34-2.69-.46-5.15,1.88-7.1.34-.43.54-.94.58-1.48.31-1.32.55-2.65.7-4,.3-3.12,1.63-6.13.3-9.41-.67-1.66-.38-3.7-.55-6l3.73,3.14.55-.46c-.78-5.37-3.28-10.13-5.33-14.68,3.08-1.32.22-4.2,1.58-6.1.58,1.63,1.08,3,1.55,4.39.7,2.09,1.43,4.17,2.08,6.28s1.19,4.18,1.79,6.27l.52-.16,1.27-3.24c.54,1.51.95,2.6,1.32,3.71,1,3.05,2,6.1,3,9.16.73,2.25,1.09,4.76,2.33,6.69.93,1.49,1.3,3.26,1.07,5,.01,2.43.32,4.84.9,7.2.31,1.6,1.4,3.14,1.36,4.69-.11,3.4-.49,6.79-1.12,10.13-.61,3.36.79,7,3.41,7.86l-.78,7.66c4.52-4.75,3.63-10.64,4.19-16.33.41.64.82,1.27,1.29,2,2.06-3.49,2.36-7.75.81-11.5-.69-1.71-1.58-4-1-5.45,1.85-4.89,1.48-9.67.5-14.57-.57-2.89-1-5.8-1.41-8.71-.22-1.57,0-2.88,2.42-1.78.38-4.9-.12-9.19-2.83-13.21-1.32-2.15-2.35-4.47-3.05-6.89-.94-2.86-1.55-5.82-2.26-8.75-.15-.66-.46-1.69-.16-2,1.73-1.67.61-3-.27-4.42-.56-.9-1-1.87-1.44-2.75,2.32.5,3.11,2.07,3.72,4.2.66,2.33,1.75,4.7,4.72,5.21.39.07.79.77,1,1.26,1.09,3.32,2.09,6.67,3.19,10,.5,1.51.85,3.9,1.85,4.27,3.31,1.2,1.19,3.35,1.35,5.06.07.76-.43,1.74-.11,2.27,2.7,4.39,2.79,9.24,2.77,14.14-.03.7.14,1.4.51,2,1.44,1.91,3,3.7,2.87,6.36,0,.67.62,1.37,1,2.14,2.31-2,2-4.56,2.2-7,.22-2.71-1.69-4.55-2.26-6.86-1-4-1.67-8.1-.47-12.27.44-1.86.73-3.75.86-5.66.52-4.35,1-8.7,1.51-13.05.01-.32.11-.63.29-.9,1.41-1.51.87-3.13.23-4.7-1.57-3.92-3.22-7.8-4.78-11.71-.21-.65-.29-1.32-.23-2,.2-1.24.28-2.49.22-3.74-.7-4-1.71-8-.17-12,.48-1.27.75-2.62,1.16-4.11,2.67,4.32,5.57,8.14,7.5,12.39s3,9.1,4.43,13.68c1.68-2.68,2.18-5.94,1.39-9-.54-2.15-1.13-4.29-1.54-6.47-.75-4-1.24-8-2.09-11.94-.8-3.74-2.34-7.37-.46-11.23.2-.77.26-1.56.17-2.35.22-3.58,1.83-6.93,4.49-9.34-.22,2.09-.43,4.14-.73,7l4.81-2.3c-.34,2.45-2.35,4.76-.21,7.34l6.1-9.59c.71,1.12,1.23,2,2.24,3.53l3.62-8.6,3.79,2.45c-.95,2.26-2.04,4.47-3.26,6.6-2.16,3.4-2.91,6.89-2.36,9.4,1.6-.8,3.12-1.76,4.53-2.86,1.3-1.38,2.43-2.9,3.39-4.53.69-1,1.27-2,1.89-3.05.62.84,1.23,1.68,1.88,2.55,1.71-1.37,2.16-3.29,2.07-5.46-.06-1.5,0-3,1.59-3.42.8,3.76,1.56,7.41,2.44,11.57.91-1.08,1.91-1.75,2.11-2.61.63-2.6.92-5.28,1.4-7.92.18-.61.42-1.21.73-1.77.49.5,1.42,1,1.42,1.5,0,.61.14,1.22.38,1.78.23,2.39,1.17,4.66,2.71,6.5.18.27.33.55.46.84,1.71,3,3.44,6,5.16,9l.71-.1-2.75-24.81.62-.13c.16.33.47.68.45,1-.34,4.76,1.95,8.32,5,11.62,1.02,1.21,1.79,2.6,2.27,4.11,1.08,3,1.88,6.08,2.9,9.1.49,1.17,1.06,2.31,1.71,3.4l2-2.84c.9,4.52,3.13,7.2,7.61,8.24-1.17-5-1-10.13-4.48-14.07-2.27-2.55-2.25-5.46-2-8.7,1.22.65,2.37,1.44,3.42,2.35.85.77,1.81,1.4,2.86,1.86,1.49.36,3,.61,4.52.73,3.39-1.76,6.84-2.62,10.19.46.41-1.22.47-2.75,1.14-3.08,1.61-.8,1.38-1.75.8-2.9-.72-1.41-1.63-2.72-2.28-4.16-.25-.82-.4-1.67-.43-2.53,3.73,2.8,4.55,6.54,3.12,10.32-.62,1.65-1.62,3.82-1,5.13,1.2,3,1.13,6.36-.18,9.31-1.4,3.67-.18,6.92.15,10.28.31,3.06,1.32,6,.54,9.18-.38,1.54-.06,3.25-.06,4.87l1,.3c.84-1.51,1.55-3.09,2.13-4.72.91-3.2,1.44-6.51,2.37-9.71.62-1.68,1.38-3.31,2.27-4.87l.65.29c0,.63,0,1.26-.13,1.88-.79,5.3-3.94,10.1-3.25,15.72,0,.25-.31.53-.44.82-1.48,3.51-3.47,6.9-4.27,10.56s-1.07,7.95,2.61,10.92c.3.25.49.61.54,1,.11,3.54,1,7.19-1.53,10.37-2.36,2.8-3.31,6.52-2.58,10.11.28,1.57.76,3.11.93,4.69.45,4.19.76,8.24-1.13,12.41-1.24,2.74-1,6.18-1.27,9.32,0,.54.58,1.13,1,1.93.68-1,1.09-1.66,1.57-2.28,6.19-7.87,4.31-18.52,9.28-26.82.27-.45.17-1.11.35-1.63,1.44-4.09,2.49-8.38,4.48-12.18,1.82-3.5,3.3-6.77,2.65-10.81-.08-1.35.07-2.7.44-4,1.04-5.16,2.12-10.3,3.24-15.43.25-.93.61-1.82,1.08-2.65,2.35-4.41,1.62-9.58,3.55-14.08v-.23c.34-4.73-.5-9.62,1.9-14,.32-.68.86-1.22,1.54-1.53.33-.11,1.18.71,1.44,1.28.27.83.45,1.68.56,2.54.24.92.56,1.83.72,2.32l3.37-.22c.11,1.05.05,2.1-.18,3.13-1.16,2.89-2.67,5.63-3.8,8.53-.63,1.52-.94,3.15-.92,4.8.18,4.21.14,8.3-1.93,12.14-.35.79-.47,1.66-.34,2.52.31,2.85.74,5.68,1.16,8.51.09.61.11,1.43.5,1.76,1.69,1.46.85,2.72.08,4.23-1.15,2.24-2.52,4.52-2.95,6.94-.69,3.81-.5,7.73-2.09,11.45-.78,1.83-.75,4.05-.89,6.1-.05.61.65,1.25.9,1.92s.77,1.66.55,2.29c-.49,1.41-1.5,2.63-2,4s-1.39,3.25-1.2,4.77c.42,3.25,1.58,6.41,2.13,9.65.37,1.66.25,3.4-.33,5-1.21,2.67-3.33,4.93-4.44,7.62-.67,2.09-.91,4.3-.71,6.49,0,.71,1.46,1.28,1.93,2.1.5.81.73,1.76.65,2.71-.66,3.51.18,7.14,2.32,10,.34-1.14.5-1.81.73-2.46,1.15-3.32,2-6.8,3.57-9.88,1.57-3.05,2.49-6.39,2.73-9.81.25-1.55.66-3.07,1.21-4.54,1.05-3.73,3.31-7.17,2-11.43-.43-1.44.23-3.28.63-4.87.35-1.38,1.31-2.63,1.54-4,.86-5.24,1.58-10.51,2.27-15.78.38-2.93,6-9.21,8.88-9.73.29-.06.61,0,.38,0-.77,3.24-1.54,6.26-2.19,9.3-.38,1.78-.08,3.88-.92,5.35-2.74,4.73-.5,10.37-3.08,15-.06.1.07.3.07.46v6c1.86.87,1.75.86,1.52,3.35-.06,1.54.02,3.08.23,4.6.09,1,.31,2,.5,3.06.67,3.43,1.32,6.86,2.06,10.27.26.84.59,1.65,1,2.43,1.33-2.63,2.3-5.42,2.87-8.31.51-2.86.57-5.8.82-8.7.44-4.83.94-9.63,2.74-14.22,1.09-2.48,1.83-5.1,2.19-7.78.48-5.15.61-10.35.58-15.54-.14-1.96.59-3.87,2-5.24l2.95,1.09v9.94c-.07,3.64,1.91,6.38,4.21,9.88.51-2.54,1-4.43,1.24-6.34.7-5.18.9-10.46,2.07-15.52,1.37-5.9,1.8-11.6-.31-17.35-.16-.44-.4-1.06-.22-1.38,1.38-2.38,1-4.84.64-7.37-.22-1.45.2-2.72,2.11-2,1.43.54,1.88-.19,2.18-1.33.06-.56.2-1.1.43-1.61.57-.76,1.19-1.47,1.86-2.15.26.92.45,1.85.56,2.8.09,2.05-.3,4.17.12,6.14.68,3.15,1.88,6.19,2.82,9.29.38,1.26.65,2.55,1,3.94l2.39-1.21c2.94,11.53,3.69,23.49,9.6,34,.27-.81.39-1.66.35-2.51-.14-4.54-.58-9.1-.41-13.63.24-6.3,1-12.57-1.51-18.63-.31-.74-.46-1.54-.45-2.34,0-.66.3-1.85.61-1.9,2.45-.39,1.09-1.63.89-2.85-.63-3.85-2.25-7.85,1-11.42.3-.47.37-1.06.17-1.59-1.74-3.52-.07-7.09-.22-10.63,0-.61.67-1.25,1-1.87.39.52.72,1.07,1,1.66.43,1.27.72,2.57,1.07,3.85l.68-.16v-18.63c.06-.68.2-1.35.4-2,.6.4,1.2.8,1.79,1.21.24.17.46.38,1.17,1,.37-1.18.65-2.38.85-3.59.16-1.25.12-2.53-.11-3.77-.43-2-1.11-3.92-1.74-5.87-1.12-3.46-2.32-6.89-3.34-10.37-.14-.48.43-1.36.91-1.73.25-.19,1.17.2,1.57.57,1.08.91,2.04,1.96,2.83,3.13,1.46,2.49,2.65,5.14,4,7.69.3.57.86,1.42,1.31,1.43,1.67,0,1.64,1.16,1.86,2.25.34,2.2.84,4.37,1.5,6.49.52,1.42,1.72,2.6,2.83,4.18,0-4.08.16-7.49,0-10.88s-.76-6.59-1.18-9.88c-.26-2.06-.66-4.11-.77-6.17,0-.72.59-1.46.88-2.21.31-.63.52-1.3.62-2,.1-1.51.08-3.02-.07-4.53-.2-1.62-.23-3.49-1.08-4.75-2.79-4-4.77-8.5-5.83-13.26-.37-1.79-1.2-3.66.69-5.95,2.42,3,4.73,5.86,7,8.75s4.29,6.27,7.84,8.25c.1-.27.17-.55.2-.83-.51-6.08-2.65-11.91-6.21-16.87-.39-.59-.69-1.23-.9-1.9-1-2.77-1.86-5.55-2.83-8.32-.85-2.45-1.7-4.88-.44-7.45.16,1,.31,2.09.46,3.13l.79.1c.52-1.81,1-3.62,1.55-5.43l.85-.35c.73,1.13,1.45,2.26,2.18,3.38l.95-.46c-2.32-5.64-3.5-11.68-3.49-17.78l4.6,1,.74-.75-3.69-8.78.31-.16,8.06,9.6c.29-5.4-.88-10.77-3.37-15.57-.23-.5-.87-.82-1.02-1.31Zm-14.88-50l.64-.43,3.21,4.73c-3.18-.13-3.01-2.57-3.85-4.3Z"/>
        <polygon class="cls-1" points="135.37 354 104.55 427.64 114.94 446.41 145.76 372.77 135.37 354"/>
        <polygon class="cls-1" points="162.37 341.48 131.55 415.12 141.94 433.89 172.76 360.25 162.37 341.48"/>
        <polygon class="cls-1" points="189.76 356.35 158.95 429.99 169.33 448.75 200.15 375.12 189.76 356.35"/>
        <polygon class="cls-1" points="201.62 376.43 192.65 399.03 213.5 447.89 223.17 429.35 201.62 376.43"/>
      </g>
    </g>
  </g>
</svg>