<?xml version="1.0" encoding="UTF-8"?>
<svg id="Camada_2" data-name="Camada 2" xmlns="http://www.w3.org/2000/svg" viewBox="0 0 243.5 410.39">
  <defs>
    <style>
      .cls-1 {
        fill: #22c55e;
        stroke-width: 0px;
      }
    </style>
  </defs>
  <g id="Camada_1-2" data-name="Camada 1">
    <g>
      <path class="cls-1" d="m47.54,70.72c9.37,0,17,7.63,17,17s-7.63,17-17,17-17-7.63-17-17,7.63-17,17-17m0-11c-15.46,0-28,12.54-28,28s12.54,28,28,28,28-12.54,28-28-12.54-28-28-28h0Z"/>
      <path class="cls-1" d="m42.86,62.37C55.41,26.8,89.2-.36,127.64,0c22.42.4,44.6,8.57,61.09,24.13,23.5,22.15,26.36,56.3,9.39,83.24-11.73,18.96-30.69,33.6-52.58,38.51-7.3,1.68-14.96,1.94-22.25,1.23,0,0,4.21-3.89,4.21-3.89.61,88.54.97,178.76-4.3,267.17-5.01-88.41-4.39-178.65-3.52-267.18,0,0,.07-4.22.07-4.22,21.67,2.75,42.69-5.7,58.03-20.9,21.98-21.04,30-54.21,10.6-79.52-14.14-18.19-37.96-27.9-60.79-28.12-13.15.11-26.2,3.69-37.51,10.44-17.24,9.94-30.17,26.51-36.85,45.17,0,0-10.36-3.68-10.36-3.68h0Z"/>
      <path class="cls-1" d="m97.04,395.22c-34.11-13.56-55.16-55.28-40.79-90.19,4.87-11.71,14.73-20.89,26.02-26.39,24.03-11.87,53.97-8.9,76.07,5.97,2.5,1.64,5.24,3.68,7.51,5.62,1,.86,1.93,1.63,3.06,2.35,7.2,4.63,13.56,4.86,17.65-3.47.43-.8,2.18-4.13,2.63-4.97,3.01-5.37,5.82-10.98,9.89-15.73.12-.12.22-.23.42-.42,0,0,.3-.27.3-.27.37-.28.25-.24.96-.67,0,0,5.36,9.6,5.36,9.6.54-.33.53-.33.74-.5-2.66,3.28-5.78,8.83-8.26,13.17-.81,1.48-2.49,4.49-3.3,5.9-9.37,15.95-25.79,12.56-37.47,1.17-19.55-16.7-48.74-21.63-72.35-10.99-28.72,12.12-34.12,45.06-22.89,71.68,6.57,16.23,19.12,29.67,34.45,38.12h0Z"/>
      <path class="cls-1" d="m208.78,239.61c7.11-23.74,14.04-47.67,19.7-71.78,1.36-5.95,2.66-11.9,3.52-17.88.43-3.24.6-5.18.38-8.39,0,0-.06-3.23-.06-3.23-.11-3.54.21-7.31-.89-10.42.02.03.13.15.28.24.32.21.49.13.12.14-3.09.38-6.03,2.17-8.87,3.75-3.34,1.97-6.67,4.25-9.96,6.61-6.57,4.77-12.89,9.85-18.86,15.3-9.63,8.87-18.46,18.61-25.79,29.44-8.8,14.3-22.14,26.16-38.48,31.08-13.43,4.29-28.73,1.62-40.31-6.23-3.52-2.38-7.06-5.05-10.42-7.63-9.94-7.73-19.62-16.12-28.74-24.77-12.27-11.6-23.88-23.56-35.04-36.3,0,0,9.18-5.86,9.18-5.86,9.18,18.6,17.34,37.67,25.21,56.85,7.84,19.26,15.34,38.63,21.49,58.54,0,0-.53.24-.53.24-16.3-26.62-30.19-54.52-43.55-82.67C18.61,149.55,7.58,120.85,0,102.98c0,0,23.72,29.42,23.72,29.42,20.33,22.93,42.42,44.84,67.04,63.19,7.21,5.78,16.16,10.07,25.28,9.96,14.82-.05,28.98-9.39,38.08-20.95,1.79-2.2,3.54-4.94,5.11-7.32,12.66-18.62,29.19-34.37,47.34-47.53,7.48-5.02,21.9-16.57,31.06-10.85,6.32,4.26,5.47,12.84,5.69,19.32.06,2.2.09,3.9.18,6.31-.31,8.94-2.45,17.2-4.29,25.78-1.9,8.2-3.98,16.3-6.13,24.37-4.33,16.15-8.94,32.14-13.77,48.15,0,0-10.52-3.21-10.52-3.21h0Z"/>
      <path class="cls-1" d="m210.29,243.72c6.75,0,12.25,5.5,12.25,12.25s-5.5,12.25-12.25,12.25-12.25-5.5-12.25-12.25,5.5-12.25,12.25-12.25m0-9c-11.74,0-21.25,9.51-21.25,21.25s9.51,21.25,21.25,21.25,21.25-9.51,21.25-21.25-9.51-21.25-21.25-21.25h0Z"/>
    </g>
  </g>
</svg>