<?xml version="1.0" encoding="UTF-8"?>
<svg id="Camada_2" data-name="Camada 2" xmlns="http://www.w3.org/2000/svg" viewBox="0 0 340.47 255.39">
  <defs>
    <style>
      .cls-1 {
        fill: #22c55e;
        stroke-width: 0px;
      }
    </style>
  </defs>
  <g id="Camada_1-2" data-name="Camada 1">
    <path class="cls-1" d="m230.74,8.75l-14.65,26.84c-.98,1.79-2.86,2.91-4.9,2.91h-58.75c-4.22,0-6.91-4.5-4.92-8.22l14.4-26.84c.97-1.81,2.86-2.94,4.92-2.94h59c4.24,0,6.93,4.53,4.9,8.25Z"/>
    <path class="cls-1" d="m154.33,9.49l-14.1,25.84c-1.07,1.95-3.11,3.17-5.34,3.17h-57.62c-4.6,0-7.53-4.91-5.36-8.96l13.86-25.84c1.06-1.97,3.12-3.21,5.36-3.21h57.85c4.62,0,7.55,4.94,5.34,8.99Z"/>
    <g>
      <path class="cls-1" d="m241.21,103.97c.4.83.32,2.01,1.85,2.07l-1.54-2.28-.31.21Z"/>
      <path class="cls-1" d="m339.62,39.83l-12.55-32c-1.85-4.72-6.4-7.83-11.48-7.83h-69.12c-4.53,0-8.7,2.49-10.85,6.47l-15.15,28.09c-2.14,3.97-6.28,6.45-10.79,6.47l-197.41.91c-6.79.03-12.27,5.54-12.27,12.33v188.8c0,6.81,5.52,12.33,12.33,12.33h315.82c6.81,0,12.33-5.52,12.33-12.33V44.33c0-1.54-.29-3.07-.85-4.5Zm-92.69,79.31c-.14-.64-.37-1.27-.66-1.86-.33-.56-.82-1.02-1.4-1.31.31.79.64,1.58.96,2.37-.08.06-.17.11-.26.16l-2.41-2.07-.26.2c.11.33.24.65.41.96,1.24,1.84,2.56,3.63,3.73,5.51.38.6.37,1.43.56,2.16.24.93.48,1.86.77,2.78.07.24.38.39.49.63,1.2,2.31,1.76,4.9,1.62,7.49l-3.88-4.62-.15.08,1.78,4.23-.36.36-2.21-.48c0,2.93.56,5.84,1.68,8.56l-.46.22c-.35-.54-.7-1.08-1.05-1.63l-.41.17c-.26.87-.5,1.74-.75,2.61l-.38-.05c-.07-.5-.14-1.03-.22-1.51-.61,1.24-.2,2.41.21,3.59.47,1.33.88,2.67,1.36,4,.1.32.25.63.43.91,1.71,2.39,2.74,5.19,2.99,8.12-.02.14-.05.27-.1.4-1.71-.95-2.68-2.58-3.77-3.97s-2.2-2.77-3.37-4.21c-.91,1.1-.51,2-.33,2.86.51,2.29,1.46,4.46,2.81,6.38.41.61.42,1.51.52,2.29.07.72.08,1.45.03,2.18-.05.34-.15.66-.3.96-.14.36-.42.72-.42,1.06.05.99.25,1.98.37,2.97.2,1.58.49,3.12.57,4.75.08,1.63,0,3.27,0,5.24-.53-.76-1.11-1.33-1.36-2.01-.32-1.02-.56-2.07-.72-3.12-.11-.52-.09-1.08-.9-1.08-.22,0-.49-.41-.63-.69-.65-1.23-1.22-2.5-1.93-3.7-.38-.56-.84-1.07-1.36-1.51-.19-.18-.64-.37-.76-.27-.23.18-.51.6-.44.83.49,1.67,1.07,3.33,1.61,4.99.3.94.63,1.86.84,2.83.11.6.13,1.21.05,1.81-.1.58-.23,1.16-.41,1.73-.34-.3-.45-.4-.56-.48-.28-.2-.57-.39-.86-.58-.1.31-.16.64-.19.96v8.97l-.33.08c-.17-.62-.31-1.24-.51-1.85-.13-.28-.29-.55-.48-.8-.16.3-.48.61-.48.9.07,1.7-.73,3.42.11,5.12.1.25.06.54-.08.77-1.56,1.72-.78,3.64-.48,5.5.1.59.75,1.18-.43,1.37-.15.02-.29.6-.29.91,0,.39.07.77.22,1.13,1.21,2.92.84,5.93.73,8.97-.08,2.18.13,4.37.2,6.56.02.41-.04.82-.17,1.21-2.84-5.06-3.21-10.81-4.62-16.36l-1.15.58c-.17-.67-.3-1.29-.48-1.9-.45-1.49-1.03-2.96-1.36-4.47-.2-.95-.01-1.97-.06-2.96-.05-.46-.14-.91-.27-1.35-.32.33-.62.67-.9,1.03-.11.25-.18.51-.21.77-.14.55-.36.9-1.05.64-.92-.35-1.12.26-1.02.96.17,1.22.36,2.4-.31,3.55-.09.15.03.45.11.66,1.02,2.77.81,5.51.15,8.35-.56,2.44-.66,4.98-1,7.47-.12.92-.35,1.83-.6,3.05-1.11-1.68-2.06-3-2.03-4.75v-4.78l-1.42-.52c-.68.66-1.03,1.58-.96,2.52.01,2.5-.05,5-.28,7.48-.18,1.29-.53,2.55-1.05,3.74-.87,2.21-1.11,4.52-1.32,6.84-.12,1.4-.15,2.81-.39,4.19-.27,1.39-.74,2.74-1.38,4-.2-.37-.36-.77-.48-1.17-.36-1.64-.67-3.29-.99-4.94-.09-.51-.2-.99-.24-1.47-.1-.73-.14-1.47-.11-2.21.11-1.2.16-1.19-.73-1.61v-2.89c0-.08-.06-.17-.03-.22,1.24-2.23.16-4.94,1.48-7.22.4-.71.26-1.72.44-2.57.31-1.46.68-2.92,1.05-4.48.11,0-.04-.03-.18,0-1.39.25-4.09,3.27-4.27,4.68-.33,2.54-.68,5.07-1.09,7.59-.11.66-.57,1.26-.74,1.93-.19.77-.51,1.65-.3,2.34.63,2.05-.46,3.71-.96,5.5-.27.71-.46,1.44-.58,2.18-.11,1.65-.56,3.25-1.31,4.72-.76,1.48-1.16,3.16-1.72,4.75-.11.31-.19.64-.35,1.18-1.03-1.38-1.43-3.12-1.12-4.81.04-.46-.07-.91-.31-1.3-.23-.39-.93-.67-.93-1.01-.1-1.05.02-2.12.34-3.12.53-1.29,1.55-2.38,2.14-3.67.28-.77.33-1.61.16-2.41-.26-1.56-.82-3.08-1.03-4.64-.09-.73.34-1.64.58-2.3.24-.66.73-1.25.96-1.93.11-.3-.14-.78-.26-1.1s-.46-.63-.43-.92c.07-.99.05-2.05.43-2.94.77-1.79.67-3.68,1.01-5.51.21-1.16.87-2.26,1.42-3.34.37-.73.77-1.33-.04-2.04-.19-.16-.2-.55-.24-.85-.2-1.36-.41-2.72-.56-4.1-.06-.41,0-.83.16-1.21,1-1.85,1.02-3.82.93-5.84,0-.79.14-1.58.44-2.31.54-1.4,1.27-2.71,1.83-4.11.11-.49.14-1,.09-1.51l-1.62.11c-.08-.24-.23-.67-.35-1.12-.05-.42-.14-.82-.27-1.22-.13-.27-.53-.67-.69-.62-.33.15-.59.41-.74.74-1.16,2.11-.75,4.46-.91,6.74v.11c-.93,2.17-.58,4.65-1.71,6.78-.23.4-.4.83-.52,1.28-.54,2.47-1.06,4.94-1.56,7.43-.18.62-.25,1.28-.21,1.93.31,1.94-.4,3.52-1.28,5.2-.96,1.83-1.46,3.89-2.16,5.86-.09.25-.04.57-.17.78-2.39,3.99-1.49,9.12-4.47,12.91-.23.3-.43.62-.76,1.1-.2-.39-.48-.67-.48-.93.13-1.51.01-3.17.61-4.49.91-2.01.76-3.96.54-5.97-.08-.76-.31-1.5-.45-2.26-.35-1.73.11-3.52,1.24-4.87,1.22-1.53.79-3.29.74-4.99-.02-.19-.12-.36-.26-.48-1.77-1.43-1.64-3.49-1.26-5.26s1.34-3.39,2.05-5.08c.06-.14.21-.27.21-.39-.33-2.7,1.18-5.01,1.56-7.57.06-.3.06-.6.06-.9l-.31-.14c-.43.75-.79,1.53-1.09,2.34-.45,1.54-.7,3.13-1.14,4.67-.28.78-.62,1.54-1.03,2.27l-.48-.14c0-.78-.15-1.6.03-2.34.38-1.53-.11-2.95-.26-4.42-.16-1.62-.75-3.18-.07-4.95.63-1.42.66-3.04.09-4.48-.3-.63.18-1.67.48-2.47.69-1.82.29-3.62-1.5-4.97.02.41.09.82.21,1.22.31.69.75,1.32,1.1,2,.28.55.39,1.01-.39,1.4-.32.16-.35.9-.55,1.48-1.61-1.48-3.27-1.07-4.9-.22-.73-.06-1.46-.18-2.18-.35-.5-.22-.97-.52-1.38-.9-.5-.44-1.06-.82-1.65-1.13-.12,1.56-.13,2.96.96,4.19,1.67,1.9,1.59,4.37,2.16,6.77-2.16-.5-3.23-1.79-3.66-3.97l-.96,1.37c-.31-.52-.59-1.07-.82-1.64-.49-1.45-.88-2.94-1.4-4.38-.23-.73-.6-1.4-1.09-1.98-1.47-1.59-2.57-3.3-2.41-5.59,0-.15-.14-.32-.22-.48l-.3.06,1.32,11.94-.34.05c-.83-1.44-1.66-2.89-2.48-4.33-.06-.14-.14-.28-.22-.4-.74-.89-1.2-1.98-1.3-3.13-.12-.27-.18-.56-.18-.86,0-.24-.45-.48-.68-.72-.15.27-.27.56-.35.85-.23,1.27-.37,2.56-.67,3.81-.1.41-.58.74-1.02,1.26-.42-2-.79-3.76-1.17-5.57-.77.2-.79.92-.77,1.65.04,1.04-.17,1.97-1,2.63-.31-.42-.61-.82-.9-1.23-.3.51-.58.99-.91,1.47-.46.79-1.01,1.52-1.63,2.18-.68.53-1.41.99-2.18,1.38-.26-1.21.1-2.89,1.14-4.52.59-1.03,1.11-2.09,1.57-3.18l-1.82-1.18-1.74,4.14c-.49-.74-.74-1.16-1.08-1.7l-2.94,4.62c-1.03-1.24-.06-2.35.1-3.53l-2.31,1.11c.14-1.38.25-2.36.35-3.37-1.28,1.16-2.06,2.77-2.16,4.5.04.38.01.76-.08,1.13-.9,1.86-.16,3.6.22,5.4.41,1.9.64,3.82,1.01,5.75.2,1.05.48,2.08.74,3.11.38,1.47.14,3.04-.67,4.33-.69-2.2-1.2-4.54-2.13-6.58s-2.32-3.88-3.61-5.96c-.2.72-.33,1.37-.56,1.98-.74,1.93-.26,3.85.08,5.78.03.6,0,1.21-.11,1.8-.03.33.01.65.11.96.75,1.88,1.54,3.75,2.3,5.64.31.76.57,1.54-.11,2.26-.09.13-.13.28-.14.43-.25,2.09-.48,4.19-.73,6.28-.06.92-.2,1.83-.41,2.72-.58,2.01-.26,3.98.23,5.91.27,1.11,1.19,2,1.09,3.3-.1,1.17.05,2.41-1.06,3.37-.18-.37-.48-.71-.48-1.03.06-1.28-.69-2.14-1.38-3.06-.18-.29-.26-.62-.25-.96,0-2.36-.03-4.69-1.33-6.81-.15-.26.09-.73.05-1.09-.08-.82.94-1.86-.65-2.44-.48-.18-.65-1.33-.89-2.05-.53-1.6-1.01-3.21-1.54-4.81-.1-.24-.29-.57-.48-.61-1.43-.25-1.95-1.39-2.27-2.51-.29-1.03-.67-1.78-1.79-2.02.21.42.42.89.69,1.32.42.68.96,1.32.13,2.13-.14.15,0,.64.08.96.34,1.41.64,2.83,1.09,4.21.34,1.17.83,2.28,1.47,3.32,1.3,1.93,1.54,4,1.36,6.36-1.16-.53-1.27.1-1.16.86.2,1.4.4,2.8.68,4.19.47,2.36.65,4.66-.24,7.01-.28.7.15,1.8.48,2.62.75,1.8.6,3.85-.39,5.53-.23-.35-.42-.65-.62-.96-.27,2.74.16,5.57-2.02,7.86l.38-3.69c-1.26-.41-1.93-2.17-1.64-3.78.3-1.61.48-3.24.54-4.88.02-.75-.51-1.49-.65-2.26-.28-1.13-.43-2.3-.43-3.47.11-.84-.07-1.69-.51-2.41-.6-.93-.77-2.14-1.12-3.22-.48-1.47-.96-2.94-1.44-4.41-.18-.53-.38-1.06-.64-1.79l-.61,1.56-.25.08c-.29-1.01-.55-2-.86-3.02-.31-1.02-.66-2.02-1-3.02-.23-.67-.47-1.33-.75-2.11-.65.91.72,2.3-.76,2.94.99,2.19,2.19,4.48,2.57,7.07l-.26.22-1.8-1.51c.08,1.11-.06,2.09.26,2.89.64,1.58,0,3.03-.14,4.53-.07.65-.19,1.29-.34,1.93-.02.26-.12.51-.28.71-1.13.94-1.07,2.12-.9,3.42.06.81,0,1.62-.19,2.41-.18.9-.41,1.79-.69,2.67-.16.55-.41,1.08-.67,1.77-1.22-1.77-1.93-3.85-2.03-6-.05-1.37-.71-2.7-.96-4.08-.12-.82-.1-1.65.06-2.46.11-.63.53-1.2.68-1.83.09-.39.04-1.13-.18-1.23-.77-.37-.71-1.02-.8-1.64-.19-1.06-.32-2.13-.38-3.2-.07-.95.04-1.91.33-2.82.42-1.01.05-1.62-.48-2.58-.18.45-.28.7-.39.96-.11-.06-.22-.08-.22-.12-.13-1.08-.21-2.18-.39-3.25-.27-2.01-.66-4-1.16-5.96-.38-1.08-.51-2.23-.38-3.37.09-.63,0-1.26-.25-1.84l-.72,2.81-.19-.06c-.13-.92-.32-1.83-.56-2.73-.24-.45-.55-.86-.92-1.21-.34.32-.65.68-.92,1.06-1.34,2.32-1.55,4.84-1.27,7.45.1.93.23,1.89-.6,2.69-.26.26-.22.87-.26,1.32-.14,1.67-.86,2.88-2.89,3.45v-5.29c.05-.26.07-.53.05-.8-.96-3.26-.03-6.56-.23-9.84-.11-.71-.27-1.41-.48-2.09-.69,2.92-1.33,5.61-1.97,8.31l-.29-.05-.19-1.19c-.13.02-.26.05-.26.05-.19,2.28-1.65,4.08-2.44,6.13-.32,1.05-.56,2.13-.71,3.22l-.68-.2c.1,2.98.04,5.9-2.02,8.27-.28.32-.84.4-1.15.54-.04-.84-.04-1.68,0-2.52.2-1.75.48-3.49.71-5.24.03-.39.22-.94.03-1.17-1.19-1.51-.91-3.2-.43-4.74.63-2.01.58-4.02.58-6.04v-6.54l-1.02.55c-.74-2.5-.46-4.86.17-7.22.68-2.48.84-5.07.48-7.62-.28-1.96.17-4.03.33-6.05.06-.79.21-1.57.3-2.24-.66.38-1.29.8-1.9,1.27-.26.24-.26.75-.42,1.12-.62,1.5-1.22,3.04-1.93,4.48-.18.33-.72.47-1.14.73-.64-3.72.05-7.05,1.77-10.35l-.75.15c.92-2.18,1.81-4.3,2.7-6.42l-.2-.17-6.18,5.1c0-1.09-.19-2.04.04-2.86.44-1.39,1-2.73,1.67-4.02.21-.48.77-.81,1.17-1.21.82-.82.7-1.14.22-2.16-.31-.67-.02-1.6-.21-2.37-.51-2.12.55-4.06.63-6.1.06-1.77,0-3.51-.11-5.43-1.05,3.8-3.58,5.91-7.17,6.81l-.25-.23c.08-.23.2-.45.35-.64,2.16-1.88,3.05-4.44,3.79-7.07.17-.55.18-1.14.02-1.69-.64-1.76-.25-3.46.37-5.06.26-.66-.22-.91-.17-1.39.08-.79.16-1.59.25-2.41-1.91.99-4.24,1.32-5.02,3.91l-.33-.3c.02-.27.04-.54.08-.81.16-1.17.42-2.34.48-3.52-.02-1.28.49-2.52,1.41-3.41.59-.56,1.52-1.21.73-2.32-.08-.11.12-.42.21-.64.77-1.82,1.55-3.64,2.32-5.46l-4.56,3.29-.27-.29c.11-.96.24-1.84,1.03-2.64.79-.8,1.29-1.86,1.93-2.83.49-.73,1.03-1.44,1.51-2.18.33-.49.6-1.01,1.08-1.77l-2.59,1.39-.24-.32,1.86-3.62c.11-.16.2-.33.26-.51.06-.44.08-.92.11-1.41-.42.13-.84.24-1.25.37-.13.04-.26.11-.41.18.69-2.85,2.57-4.88,4.33-6.99.34-.38.56-.84.64-1.34l-3.49,2.31-.25-.18,1.44-2.32-1.81.81c.33-1.12,1-2.11,1.93-2.83,1.42-1.28,2.84-2.57,4.25-3.85.28-.33.55-.67.78-1.03-2.35.66-3.84,2.71-6.36,2.47.95-.57,1.81-1.01,2.64-1.54,3.18-2.01,6.33-4.02,9.46-6.08,1.78-1.17,3.47-2.5,5.27-3.64,1.1-.69,2.27-1.27,3.48-1.73,2.25-.86,4.55-1.61,6.82-2.41.14-.07.29-.12.44-.12,1.85.33,3.43-.59,5.04-1.18,1.16-.41,2.16-1.22,3.25-1.81.67-.36,1.36-.68,2.07-.96.73-.27,1.46-.44,2.17-.7,1.78-.64,3.29-.39,4.67,1.02.52.54,1.4.75,2.14,1.02.84.3,1.71.51,2.56.78.69.22,1.38.45,2.06.7,1.97.73,2.03.9,1.15,2.45.34.38.79.67.87,1.03.08.63.09,1.26.04,1.89.33.6.62,1.19.96,1.76.34.61.75,1.17,1.2,1.7.45.47,1.1.62,1.23,1.49.11.68.89.6,1.25.08.39-.69.75-1.4,1.07-2.13.29-.53.66-1.04,1.01-1.53.49.3.94.66,1.35,1.07,1.2,1.53,1.45,3.38,1.61,5.24.08.85.38,1.63,1.2,1.74.48.06,1.08-.45,1.56-.81.83-.66,1.63-1.42,2.41-2.1,2.37,1.93,2.41,4.62,3.21,7.02.71,2.14,1.66,4.2,2.53,6.28.12.24.29.44.51.59.64.45,1.23.96,1.75,1.54.52-.49.89-1.1,1.09-1.79.24-1.32.79-2.56,1.59-3.62.56-.78.74-1.8,1.14-2.7.7-1.61,1.35-3.26,2.19-4.79.61-1.11,1.77-1.06,2.77-.22.61.45,1.26.85,1.93,1.2.46-.82.99-1.64,1.36-2.47.37-.83.57-1.73.85-2.59.46-1.45,1.77-1.45,2.92-1.62,1.02-.14,1.5.64,1.98,1.34.09.21.2.41.32.61.17.23.4.41.67.51.15.02.45-.3.53-.52.75-2.1,1.49-4.22,2.17-6.34.37-1.15.37-2.49,1-3.45.71-.98,1.67-1.74,2.78-2.21,2.5-1.11,5.11-2.01,7.91-1.95.65.01,1.28.49,1.93.7.28.04.57.04.85,0-.28.88.27.67.85.7.89.03,1.76.18,2.61.43.41.13.68.69,1.08.93.51.27,1.05.49,1.59.67.07.03.14.04.22.03,1.44-.43,2.44.6,3.65,1.01,1.83.63,3.81.95,5.63,1.48,1.82.53,3.6,1.18,5.45,1.8-.16.46-.26.73-.44,1.21,1.38.69,2.76,1.33,4.08,2.08.94.53,1.8,1.21,2.7,1.81.19.13.42.18.61.3,1.59.99,3.17,1.99,4.76,2.98,1.01.63,1.99,1.29,3.04,1.84,1.27.63,2.3,1.64,2.97,2.89-.14-.04-.28-.07-.42-.1l-.93-.08c.07.31.19.6.35.87.86,1.02,1.76,1.98,2.59,2.95-.48.24-1.18.39-1.22.65.03.47.23.92.55,1.27.82,1.06,1.68,2.09,2.56,3.1.35.4.8.71,1.16,1.1.48.54.93,1.12,1.44,1.74-.9.47-1.99.44-2.86-.1-.39-.23-1.1.07-1.67.13,0,.48.05.95.18,1.41.59,1.38,1.27,2.7,2.06,4.33l-2.07-.89,6.94,10.59c-2.17.02-2.82-.51-4.52-3.53-.41-.07-.91,0-1.03-.2-.16-.26.04-.72-.05-1.06Z"/>
    </g>
  </g>
</svg>